<?xml version="1.0" encoding="utf-8"?>
<svg viewBox="0 0 20 20" xmlns="http://www.w3.org/2000/svg">
  <path d="M 15 7 L 12 7 L 12 1 L 8 1 L 8 7 L 5 7 L 10 12 L 15 7 Z M 19.338 13.532 C 19.128 13.308 17.727 11.809 17.327 11.418 C 17.047 11.149000000000001 16.673 11 16.285 11 L 14.528 11 L 17.592 13.994 L 14.048 13.994 C 13.95 13.992 13.858 14.043 13.808 14.127 L 12.992 16 L 7.008 16 L 6.192 14.127 C 6.141 14.043 6.05 13.993 5.952 13.994 L 2.408 13.994 L 5.471 11 L 3.715 11 C 3.318 11 2.939 11.159 2.673 11.418 C 2.273 11.81 0.8720000000000001 13.309 0.6619999999999999 13.532 C 0.17300000000000001 14.053 -0.096 14.468 0.032 14.981 L 0.593 18.055 C 0.721 18.569 1.284 18.991 1.8450000000000002 18.991 L 18.157 18.991 C 18.718 18.991 19.281 18.569 19.409 18.055 L 19.97 14.981 C 20.096 14.468 19.828 14.053 19.338 13.532 L 19.338 13.532 Z" style="fill: rgb(152, 222, 152);"/>
  <path d="M 3.793 6.5 L 7.5 6.5 L 7.5 0.5 L 12.5 0.5 L 12.5 6.5 L 16.207 6.5 L 10 12.707 Z M 13.793 7.5 L 11.5 7.5 L 11.5 1.5 L 8.5 1.5 L 8.5 7.5 L 6.207 7.5 L 10 11.293 Z M 19.702 13.189 C 20.22 13.746 20.555 14.363 20.462 15.071 L 19.894 18.176 C 19.789 18.521 19.53 18.903 19.245 19.116 C 18.962 19.328 18.525 19.475 18.157 19.491 L 1.845 19.491 C 1.477 19.475 1.04 19.328 0.757 19.116 C 0.472 18.903 0.207 18.49 0.101 18.145 L -0.453 15.102 C -0.548 14.393 -0.219 13.745 0.298 13.189 C 0.507 12.967 1.917 11.46 2.324 11.06 C 2.668 10.749 3.221 10.519 3.715 10.5 L 6.698 10.5 L 3.635 13.494 L 5.945 13.494 C 6.168 13.524 6.476 13.695 6.62 13.868 L 6.63 13.88 L 7.336 15.5 L 12.664 15.5 L 13.37 13.882 L 13.379 13.87 C 13.523 13.696 13.824 13.523 14.048 13.494 L 16.365 13.494 L 13.301 10.5 L 14.528 10.5 L 16.284 10.5 C 16.766 10.517 17.316 10.74 17.676 11.06 C 18.084 11.46 19.492 12.966 19.702 13.189 Z M 16.977 11.776 C 16.777 11.558 16.581 11.482 16.286 11.5 L 15.755 11.5 L 18.819 14.494 L 14.194 14.494 L 13.32 16.5 L 6.68 16.5 L 5.806 14.494 L 2.408 14.494 L 1.181 14.494 L 4.244 11.5 L 3.715 11.5 C 3.415 11.481 3.21 11.569 3.022 11.776 C 2.629 12.16 1.237 13.651 1.026 13.875 C 0.565 14.361 0.356 14.543 0.517 14.86 L 1.085 17.965 C 1.107 18.134 1.187 18.189 1.356 18.315 C 1.527 18.443 1.652 18.507 1.845 18.491 L 18.157 18.491 C 18.35 18.507 18.475 18.443 18.646 18.315 C 18.815 18.189 18.901 18.103 18.924 17.934 L 19.478 14.891 C 19.637 14.573 19.436 14.36 18.974 13.875 C 18.764 13.65 17.37 12.158 16.977 11.776 Z" style="fill: none;"/>
</svg>