<?xml version="1.0" encoding="utf-8"?>
<svg id="f1903550-5374-4fc8-959e-1f31e4981ba4" data-name="Layer 1" width="1017.23" height="708.31" viewBox="0 0 1017.23 708.31" xmlns="http://www.w3.org/2000/svg">
  <defs>
    <linearGradient id="ae8f1d99-169f-42eb-bca8-084a90728b1c" x1="815.82" y1="804.15" x2="815.82" y2="292.5" gradientUnits="userSpaceOnUse">
      <stop offset="0" stop-color="gray" stop-opacity="0.25"/>
      <stop offset="0.54" stop-color="gray" stop-opacity="0.12"/>
      <stop offset="1" stop-color="gray" stop-opacity="0.1"/>
    </linearGradient>
  </defs>
  <title>uploading</title>
  <path d="M 848.103 156.571 C 860.498 152.204 872.083 145.165 883.834 138.85 C 895.585 132.534 907.502 126.942 920.561 125.468 C 946.644 122.524 973.875 126.635 998.32 137.021 C 1022.764 147.406 1044.423 164.066 1059.361 186.22 C 1091.272 233.548 1079.811 271.869 1055.305 309.209 C 1030.798 346.549 993.245 382.908 972.974 426.311 C 966.508 440.155 959.531 455.369 955.379 470.746 C 951.227 486.124 949.901 501.663 954.738 516.157 C 958.497 527.421 991.079 552.452 1024.229 576.533 C 1057.379 600.614 1091.097 623.746 1097.129 631.211 C 1107.44 643.973 1109.801 662.532 1106.381 680.068 C 1102.96 697.603 1093.758 714.115 1080.943 722.779 C 1068.536 731.167 1054.814 737.611 1040.503 742.584 C 1026.191 747.556 1011.29 751.058 996.525 753.562 C 928.318 765.129 776.046 768.055 638.862 767.961 C 501.678 767.866 379.582 764.751 371.728 764.232 C 349.128 762.741 291.595 758.554 235.27 743.983 C 178.945 729.413 123.829 704.458 106.061 661.431 C 100.718 648.492 100.264 634.165 102.335 619.782 C 104.406 605.398 109.001 590.958 113.757 577.792 C 118.88 563.609 127.71 551.338 137.07 539.306 C 146.429 527.274 156.317 515.481 163.557 502.252 C 171.253 488.189 179.948 474.193 187.312 459.75 C 194.677 445.307 200.711 430.416 203.088 414.561 C 205.31 399.731 204.391 384.598 201.746 369.611 C 199.1 354.624 194.727 339.783 190.043 325.538 C 187.152 316.747 180.645 309.717 174.201 302.667 C 167.756 295.618 161.374 288.549 158.732 279.679 C 151.625 255.824 150.095 222.052 156.364 190.511 C 162.633 158.969 176.701 129.658 200.794 114.723 C 243.829 88.046 302.188 95.13 358.014 111.274 C 413.84 127.418 467.134 152.621 500.038 162.182 C 530.637 171.074 561.096 182.847 591.87 192.269 C 622.645 201.692 653.734 208.763 685.595 208.249 C 714.012 207.791 741.236 199.594 768.058 189.15 C 794.879 178.706 821.297 166.015 848.103 156.571 Z" transform="translate(-91.39 -95.85)" opacity="0.1" style="fill: rgb(27, 251, 24);"/>
  <path d="M 847.034 155.519 C 865.533 136.716 892.203 126.548 920.425 123.975 C 948.643 121.401 978.564 126.381 1003.597 137.725 C 1027.476 148.568 1047.2 165.486 1060.605 185.382 C 1074.012 205.283 1081.168 228.288 1080.019 251.205 C 1076.545 317.878 1012.415 369.023 974.228 427.135 C 956.432 454.198 943.854 486.533 956.121 515.576 C 967.173 542.013 994.671 558.243 1023.468 574.14 C 1052.265 590.036 1082.355 605.567 1098.39 630.399 C 1107.927 645.242 1110.97 662.761 1108.027 679.436 C 1105.086 696.108 1096.137 712.1 1081.899 723.935 C 1059.458 742.466 1027.558 750.2 996.758 755.044 C 941.306 763.757 884.695 765.45 828.355 767.12 C 676.135 771.62 523.47 776.119 371.626 765.729 C 302.994 761.038 232.592 752.723 172.822 723.76 C 143.401 709.485 116.15 689.118 104.679 662.014 C 93.184 634.648 99.253 603.847 112.411 577.129 C 125.567 550.418 145.33 526.45 162.316 501.409 C 180.434 474.724 195.368 444.584 201.619 414.258 C 207.869 383.938 205.458 353.57 188.763 326.321 C 179.181 310.638 165.258 296.815 157.379 280.325 C 146.065 256.545 148.474 229.817 152.587 204.529 C 158.073 170.932 168.361 134.614 199.963 113.474 C 232.847 91.652 279.493 92.714 320.164 100.509 C 383.387 112.585 441.72 137.927 500.581 160.784 C 559.441 183.64 620.999 204.513 685.647 206.75 C 742.724 208.736 809.197 193.961 847.034 155.519 Z M 685.613 207.75 C 620.821 205.487 559.099 184.58 500.219 161.716 C 441.34 138.853 383.093 113.535 319.976 101.491 C 279.387 93.706 233.113 92.568 200.517 114.306 C 169.119 135.166 159.047 171.148 153.573 204.691 C 149.466 229.943 147.015 256.375 158.281 279.895 C 166.062 296.245 179.959 310.022 189.617 325.799 C 206.382 353.27 208.876 384.002 202.598 414.46 C 196.322 444.911 181.296 475.226 163.144 501.971 C 146.13 527.049 126.413 550.962 113.309 577.571 C 100.207 604.173 94.136 634.552 105.601 661.626 C 116.91 688.522 143.919 708.635 173.258 722.86 C 232.868 751.777 303.086 760.042 371.694 764.731 C 523.49 775.121 676.105 770.62 828.325 766.12 C 884.665 764.45 941.214 762.763 996.602 754.056 C 1027.362 749.22 1059.022 741.594 1081.261 723.165 C 1095.383 711.47 1104.129 695.772 1107.043 679.262 C 1109.955 662.754 1107.013 645.598 1097.55 630.941 C 1081.705 606.283 1051.795 590.919 1022.985 575.015 C 994.174 559.112 966.457 542.637 955.199 515.964 C 942.926 486.547 955.548 453.742 973.392 426.585 C 1011.685 368.357 1075.735 317.462 1079.021 251.155 C 1080.192 228.412 1073.103 205.722 1059.775 185.941 C 1046.445 166.154 1026.944 149.402 1003.183 138.635 C 978.276 127.329 948.607 122.409 920.515 124.97 C 892.427 127.532 866.067 137.534 847.747 156.22 C 809.663 194.799 742.816 209.724 685.613 207.75 Z" style="fill: none;" transform="translate(-91.39 -95.85)"/>
  <g opacity="0.1">
    <path d="M177.74,424.21S103,392.77,93.17,449.46c0,0-5.11,8.84,2,16.14,0,0,1.53-3.92,8.75.13a37.17,37.17,0,0,0,8.16,3.32,18.36,18.36,0,0,0,11.62-.62h0s24.59-1.33,45.27-33.5c0,0,8.87-5.48,9.31-7.54l-14.82,1s1.14,10.85-5,17.36c0,0,5.44-16.84,2.83-17.31-.53-.1-7.83.86-7.83.86s1.89,18.87-8,28.63c0,0,9.18-19.19,5.19-28.29l-10.94,2.11s3,19.85-7.82,31.39c0,0,8.9-20.4,5.46-30.76l-10.47,3.52s2.52,19.41-6.53,29c0,0,7.9-24.61,4.18-28,0,0-9.42,3.82-11.43,6,0,0,1.49,14-4.26,19.05,0,0,3.53-17,1.78-17.7,0,0-10.94,8.24-14.28,15.35,0,0,4.16-10.86,12.91-17,0,0-7.35-1.24-13,1.83,0,0,3.78-7.21,15.65-3.79,0,0,8.79-6.09,10.55-6,0,0-11.23-5-19.34-4.38,0,0,8.7-5,22.08,3.35l10.45-3.77s-14.5-7.43-21.76-7.4c0,0,9.66-3.74,24.47,6.66l10.7-2.18s-12-7.35-20.09-9.06c0,0,9.7-1.54,23.18,8.55l7.31-.61s-8.85-5.22-11.53-6.49-2.56-2.09-2.56-2.09a34.89,34.89,0,0,1,17.16,8.26S177.68,425.14,177.74,424.21Z" transform="translate(-91.39 -95.85)" style="fill: rgb(0, 255, 17);"/>
  </g>
  <g opacity="0.1">
    <path d="M175,367.85s-26.51-61.27-64.63-33.17c0,0-8.06,2.34-8,10.7,0,0,3.14-1.46,5.13,5.07a30.1,30.1,0,0,0,3,6.61,15,15,0,0,0,7.25,6.25h0s15.37,13.22,46,5.89c0,0,8.4,1.79,9.83.83l-9.36-7.87s-5.51,7.1-12.89,7.44c0,0,12.83-6.9,11.55-8.67-.26-.36-5.15-3.94-5.15-3.94s-9.62,12.28-21,12.47c0,0,16.39-6.18,19.2-13.85l-7.7-5s-9.54,13.49-22.53,14.19c0,0,16.91-7.05,20.77-15.17l-8.23-3.87s-9.56,13-20.37,13.49c0,0,18.72-10.12,18.43-14.25,0,0-7.77-3.1-10.24-2.92,0,0-7.07,9.15-13.38,8.89,0,0,11.79-8.09,11.15-9.5,0,0-11.2-1.34-17.23,1,0,0,8.66-4.08,17.35-2.74,0,0-3.66-4.93-8.75-6.3,0,0,6.36-2.13,11.46,6.65,0,0,8.68,1.4,9.7,2.44,0,0-3.81-9.39-9-13.62,0,0,8,2,11.2,14.57l8.36,3.71s-4.38-12.68-8.72-16.79c0,0,7.87,3.28,10.75,17.9l7.6,4.79s-2.94-11.2-6.77-16.83c0,0,6.64,4.62,8.89,18.29l4.7,3.8s-2.29-8.14-3.16-10.42-.33-2.7-.33-2.7a28.65,28.65,0,0,1,5.49,14.68S174.41,368.36,175,367.85Z" transform="translate(-91.39 -95.85)" style="fill: rgb(7, 243, 35);"/>
  </g>
  <path d="M1024.66,763c-1-3.62-2-7.29-4-10.44a36.28,36.28,0,0,0-6.56-7.17c-7.25-6.59-16.16-13.28-25.77-11.61a34,34,0,0,0-8.56,3.12c-1.4.65-2.81,1.3-4.25,1.85a21.2,21.2,0,0,1-12.83,1.12c-2.2-.59-4.25-1.65-6.42-2.31a20.72,20.72,0,0,0-3.16-.68,58.18,58.18,0,0,0,6.1-3.21C970,727,978.61,715,977.4,702.3c-.4-4.3-1.88-8.41-3.34-12.46q-1.92-5.31-3.85-10.63c-1.66-4.61-3.37-9.3-6.41-13.13-3.38-4.26-8.18-7.15-13.14-9.31-10.66-4.63-22.31-6.26-33.81-7.84l-.8-.11V524.58a8,8,0,0,0-8-8.05H892.92q-1-6.12-2-12.23c-1.91-11.61-3.88-23.45-9.23-33.91-3.5-6.85-9.08-13.37-16.59-14.72a16.54,16.54,0,0,1-4.32-1c-2.2-1.08-3.4-3.48-5.1-5.26-4.36-4.57-11.45-4.64-17.3-7-5.16-2.05-9.38-5.92-14.08-8.89s-10.55-5.09-15.76-3.15c0,.38-.07.75-.11,1.13L805.09,430c-3.6-1.66-7.28-3.38-10.17-6.12-3.72-3.51-5.7-8.14-7.24-13.08-.16-.52-.31-1-.46-1.55a46.53,46.53,0,0,0,12.44-23.77c.27.87.55,1.75.82,2.63a13.88,13.88,0,0,0,1,2.59,6.86,6.86,0,0,0,.47.79,5.1,5.1,0,0,0,1.22,1.27,3.41,3.41,0,0,0,1.61.63,3,3,0,0,0,.84,0,4.62,4.62,0,0,0,3.36-2.87,6,6,0,0,0,.35-1.22,6.31,6.31,0,0,0,.07-.76c0-.08,0-.16,0-.24s0-.35,0-.52,0-.19,0-.28,0-.34,0-.5l0-.26c0-.2-.06-.4-.1-.59s0-.11,0-.16c-.05-.26-.11-.51-.16-.77a1,1,0,0,1,0-.17l-.15-.63-.09-.38,0-.1h0c-.1-.39-.19-.79-.28-1.19a34.44,34.44,0,0,1-.55-10.57,114.49,114.49,0,0,1,2.86-15.36l.21-.91.24-1.06c.16-.72.31-1.44.46-2.16v0c.13-.61.25-1.23.36-1.85s.19-1.09.27-1.64c0-.07,0-.13,0-.2a47.52,47.52,0,0,0,.49-11.28h0c-.47-5.23-2.09-10.18-5.65-14.13-2.51-2.79-5.81-4.85-8.14-7.78-2.19-2.75-3.42-6.13-5.68-8.82-6.25-7.46-22.28-13.21-32.12-14.21-11.27-1.14-29.48,1.74-38.56,8.4-3.36,2.46-5.66,6-8,9.37-4.3,6.26-9.19,12.5-16.08,16-2.61,1.32-5.59,2.32-7.32,4.62a12.59,12.59,0,0,0-2,5.19,102.21,102.21,0,0,0-2.06,19.8,24.41,24.41,0,0,0,1.1,8.6c.14.38.31.77.49,1.14h0c.16.33.34.66.53,1l.12.21a41.55,41.55,0,0,1,3.21,5.45,7.9,7.9,0,0,1,.48,1.66,12.29,12.29,0,0,1-.28,4.39h0c0,.22-.08.43-.13.64l-.09.46c0,.14,0,.29-.08.43q-.12.65-.21,1.29c0,.3-.06.61-.07.92a7.51,7.51,0,0,0,.69,3.6,4.58,4.58,0,0,0,.47.76,4,4,0,0,0,1.35,1.15,15.14,15.14,0,0,0,3.7.88c3.74.84,6.08,3.7,7.6,7.21a25.46,25.46,0,0,1,.89,2.41,42.63,42.63,0,0,1,1.4,6.27c1.7-.09,2.69-1.59,3.29-3.23a15.2,15.2,0,0,0,.47-1.65c.23-1.05.46-2.1.7-3.15a46.49,46.49,0,0,0,18.26,20.12c.28.82.55,1.65.8,2.49,1.31,4.53,1.94,9.28-.33,13.24-1.62,2.81-4.35,4.55-7.39,5.75a4.89,4.89,0,0,0-1.65-1.41c-2.64-1.32-5.8.29-8,2.26-4,3.62-7.26,8.81-12.53,10-1.9.44-4,.35-5.59,1.51a12.92,12.92,0,0,0-2.59,3.41,11.93,11.93,0,0,1-10.24,5.1c-1.83-.09-4-.51-5.25.83-.93,1-1,2.59-2,3.54-1.35,1.32-3.54.67-5.42.59a10,10,0,0,0-7.25,3.14,17.06,17.06,0,0,0-4.36-10.9c-2.7-2.78-6.45-4.21-9.65-6.39-8-5.44-12-15-16.17-23.76s-9.67-18-18.77-21.19c-2.09-.74-5-.8-5.94,1.23a4.43,4.43,0,0,0-.15,2.65c.88,4.66,4.2,8.4,7.07,12.15,4.83,6.32,8.88,14.05,7.71,21.95-1.37,9.35-9.7,16.61-10.7,26-.44,4.14.61,8.3.6,12.46,0,2.6-.41,5.23.15,7.76a52.63,52.63,0,0,0,2.11,5.65,33.09,33.09,0,0,1,1.38,9.31q1.06,19.88,2.11,39.77c.53,9.89-1.63,19.65-3.81,29.38a92.19,92.19,0,0,0-6.26,18c-2.46,10.83-2.53,22.37,1,32.91,1.89,5.73,4.79,11.1,6.34,16.93,0,.13.06.25.09.37.15,1.24.32,2.48.55,3.71a35.66,35.66,0,0,0,1.11,4.2,29.93,29.93,0,0,0,2.2,6.87,19.22,19.22,0,0,0,6,7c-1.44,2.82-3.77,5.09-5.32,7.85-2.7,4.78-2.81,10.65-1.83,16.07,1.89,10.46,7.54,19.81,15,27.41a8.68,8.68,0,0,0-1,0,15.68,15.68,0,0,0-6.84,2.45c-15.79,9.23-24.82,29-21.52,47.1.65,3.54,1.78,7.12,4.14,9.81a15.56,15.56,0,0,0,7.29,4.47,25.29,25.29,0,0,0,5.37,1c12.31,1,24.23-4.71,36.57-5.19a98.49,98.49,0,0,1,12.25.57q8.91.74,17.86.94c9.69.23,15.15-2.35,21.34-9.6a25.88,25.88,0,0,0,3.77-5.94c5.26-.3,11.07-.76,15.28-1.11l.06.59c.23,2,.58,4.3,2.18,5.57a7.79,7.79,0,0,0,3,1.22c10.11,2.49,20.34,5,30.74,5a129.72,129.72,0,0,0,14.6-1.13l18.3-2.11a93.21,93.21,0,0,1,15.71,3.42c5.28,1.8,10.22,4.47,15.38,6.57,12,4.87,24.92,6.61,37.71,8.31,2.18.29,4.68.49,6.3-1,2.08-2,1.38-5.35.8-8.15-.24-1.14-.42-2.3-.57-3.46a173.5,173.5,0,0,1,25.26,8.77l1.44.63c.41,2.18,2.43,3.93,4.36,6.28a15.9,15.9,0,0,0,2.21,2.73,7.25,7.25,0,0,0,3.17,1.15,148.12,148.12,0,0,0,41,1.85,42,42,0,0,1,8.45-.29,35.64,35.64,0,0,1,6.1,1.38l11.58,3.31c8.53,2.45,17.28,4.92,26.13,4.37a34.71,34.71,0,0,0,5.34-.77c7-1.62,13.53-5.54,16.89-11.84C1029.42,782.89,1027.23,772.36,1024.66,763ZM685,606.59a36.39,36.39,0,0,1-3.34,12.51c-1.24,2.51-2.84,4.82-4,7.34-1.1,2.28-1.92,6.59-2.41,11.32-.6-.1-1.21-.19-1.81-.26.89-3.12,1.56-6.32,2.45-9.45C678,620.61,681.47,613.58,685,606.59Z" transform="translate(-91.39 -95.85)" fill="url(#ae8f1d99-169f-42eb-bca8-084a90728b1c)"/>
  <path d="M700.41,760.39c-2.11-4.8-4.11-10.32-2-15.12a12.85,12.85,0,0,1,6.65-6.25,32,32,0,0,1,9-2.22,125.61,125.61,0,0,1,29.26-.4c.71,5.62-.79,11.32-2.08,16.75-1.17,5-1.84,5.74-7,6C730.9,759.33,701.2,762.16,700.41,760.39Z" transform="translate(-91.39 -95.85)" fill="#fbbebe"/>
  <ellipse cx="698.07" cy="592.16" rx="143" ry="40" fill="#464353"/>
  <ellipse cx="698.07" cy="592.16" rx="143" ry="40" opacity="0.1"/>
  <path d="M815.1,476.85a44.49,44.49,0,0,1-22.94,20.84A57.58,57.58,0,0,1,774,501.15c-6.79.31-13.72-.13-20.1-2.45-8.56-3.1-15.67-9.44-21-16.83s-9-15.83-12.19-24.34c-1.68-4.43-3.28-9.15-2.49-13.83,5.15-1.17,10.79-2.89,13.45-7.46,2.27-3.92,1.64-8.62.33-13.1-.37-1.27-.8-2.53-1.23-3.74-1-2.9-4.45-8.41-2.05-10.89,1.53-1.57,7.94-2.37,10.15-3.39,6.81-3.14,13.09-7.68,20.57-9.17,6.47-1.29,13.15-.08,19.61,1.26a6.45,6.45,0,0,1,2.42.87,5.82,5.82,0,0,1,1.8,2.7c1.84,4.48,2.92,9.43,4.4,14.1,1.54,4.89,3.52,9.48,7.23,12.95,2.89,2.71,6.57,4.41,10.17,6.06l8.86,4.06a11.65,11.65,0,0,1,4.19,2.71,10.61,10.61,0,0,1,2,5.44A50.82,50.82,0,0,1,815.1,476.85Z" transform="translate(-91.39 -95.85)" fill="#fbbebe"/>
  <path d="M787.63,414.88A46,46,0,0,1,732,423.14c-.37-1.27-.8-2.53-1.23-3.74-1-2.9-4.45-8.41-2.05-10.89,1.53-1.57,7.94-2.37,10.15-3.39,6.81-3.14,13.09-7.68,20.57-9.17,6.47-1.29,13.15-.08,19.61,1.26a6.45,6.45,0,0,1,2.42.87,5.82,5.82,0,0,1,1.8,2.7C785.07,405.26,786.15,410.21,787.63,414.88Z" transform="translate(-91.39 -95.85)" opacity="0.1"/>
  <circle cx="663.07" cy="285.16" r="46" fill="#fbbebe"/>
  <path d="M 894.61 530.3 L 890.83 507.4 C 888.92 495.91 886.95 484.2 881.61 473.85 C 878.1 467.07 872.53 460.61 865.02 459.27 C 863.541 459.138 862.087 458.802 860.7 458.27 C 858.5 457.21 857.3 454.83 855.61 453.07 C 851.25 448.55 844.15 448.48 838.31 446.18 C 833.15 444.18 828.93 440.33 824.23 437.39 C 819.53 434.45 813.68 432.39 808.48 434.27 C 807.64 443.22 806.75 452.37 802.95 460.52 C 792.39 483.172 763.641 490.333 743.69 475.28 C 734.78 468.57 729.07 458.22 726.41 447.39 C 725.76 444.75 725.02 441.72 722.59 440.51 C 719.96 439.19 716.8 440.79 714.59 442.73 C 710.54 446.32 707.32 451.46 702.06 452.67 C 700.16 453.11 698.06 453.02 696.48 454.17 C 695.43 455.139 694.551 456.278 693.88 457.54 C 691.542 460.844 687.695 462.747 683.65 462.6 C 681.82 462.51 679.65 462.09 678.4 463.42 C 677.47 464.42 677.4 465.98 676.4 466.91 C 675.05 468.22 672.86 467.58 670.98 467.51 C 667.42 467.36 664.11 469.64 662.07 472.51 C 660.03 475.38 659.07 478.93 658.07 482.37 C 658.07 482.37 679 531.08 689.93 555.42 C 690.442 556.337 690.714 557.369 690.72 558.42 C 690.501 559.51 690.036 560.536 689.36 561.42 C 684 570.03 684.17 580.86 684.76 590.98 C 685.35 601.1 686.07 611.79 681.55 620.86 C 680.32 623.35 678.72 625.63 677.55 628.12 C 674.81 633.76 673.82 651.8 675.42 657.86 L 901.42 657.86 C 897.11 646.01 898.75 622.23 899.65 609.65 C 900.28 600.85 898.65 592.06 897.95 583.26 C 896.48 565.29 897.58 548.24 894.61 530.3 Z" transform="translate(-91.39 -95.85)" style="fill: rgb(87, 141, 188);"/>
  <path d="M906.18,650.86c3.33-1.27,7-.81,10.57-.33,11.49,1.57,23.15,3.18,33.8,7.77,5,2.14,9.76,5,13.14,9.21,3,3.79,4.75,8.43,6.41,13L973.94,691c1.46,4,2.94,8.08,3.35,12.33,1.2,12.59-7.41,24.46-18.24,31s-23.58,8.87-36,11.31-24.89,5.14-37.26,8a150,150,0,0,1-17.53,3.45c-13.24,1.5-27.08-.71-39.66,3.67-5,1.75-9.91,4.35-15.1,5.56A93.93,93.93,0,0,1,803.07,768l-23.81,2.72a129.89,129.89,0,0,1-14.6,1.12c-10.4,0-20.63-2.46-30.73-4.92a7.77,7.77,0,0,1-3-1.21c-1.6-1.26-1.95-3.49-2.18-5.51q-1.53-13.41-2.68-26.85c-.24-2.91-.42-6.06,1.17-8.51,2-3,5.9-3.94,9.46-4.52a246.88,246.88,0,0,1,45.68-3.17c5.81-5.81,15.39-5.84,23-9a68.39,68.39,0,0,0,8.11-4.41A106,106,0,0,1,858,689.67a41.45,41.45,0,0,0,9.11-1.3c5.89-1.83,11.26-6.81,17.31-5.59.75-2.07,1.27-4.84,3-6.26.86-.73,1.92-1.22,2.71-2,1.67-1.69,1.82-4.35,1.57-6.71s-.81-4.78-.2-7.08a9.79,9.79,0,0,1,1.11-2.47C895.62,653,900.15,650.36,906.18,650.86Z" transform="translate(-91.39 -95.85)" fill="#464353"/>
  <path d="M906.18,650.86c3.33-1.27,7-.81,10.57-.33,11.49,1.57,23.15,3.18,33.8,7.77,5,2.14,9.76,5,13.14,9.21,3,3.79,4.75,8.43,6.41,13L973.94,691c1.46,4,2.94,8.08,3.35,12.33,1.2,12.59-7.41,24.46-18.24,31s-23.58,8.87-36,11.31-24.89,5.14-37.26,8a150,150,0,0,1-17.53,3.45c-13.24,1.5-27.08-.71-39.66,3.67-5,1.75-9.91,4.35-15.1,5.56A93.93,93.93,0,0,1,803.07,768l-23.81,2.72a129.89,129.89,0,0,1-14.6,1.12c-10.4,0-20.63-2.46-30.73-4.92a7.77,7.77,0,0,1-3-1.21c-1.6-1.26-1.95-3.49-2.18-5.51q-1.53-13.41-2.68-26.85c-.24-2.91-.42-6.06,1.17-8.51,2-3,5.9-3.94,9.46-4.52a246.88,246.88,0,0,1,45.68-3.17c5.81-5.81,15.39-5.84,23-9a68.39,68.39,0,0,0,8.11-4.41A106,106,0,0,1,858,689.67a41.45,41.45,0,0,0,9.11-1.3c5.89-1.83,11.26-6.81,17.31-5.59.75-2.07,1.27-4.84,3-6.26.86-.73,1.92-1.22,2.71-2,1.67-1.69,1.82-4.35,1.57-6.71s-.81-4.78-.2-7.08a9.79,9.79,0,0,1,1.11-2.47C895.62,653,900.15,650.36,906.18,650.86Z" transform="translate(-91.39 -95.85)" opacity="0.05"/>
  <path d="M709.61,766.57c-6.19,7.17-11.64,9.73-21.33,9.5q-8.94-.21-17.86-.93a100.2,100.2,0,0,0-12.24-.57c-12.34.48-24.25,6.13-36.56,5.14a25.92,25.92,0,0,1-5.37-1A15.63,15.63,0,0,1,609,774.3c-2.36-2.67-3.49-6.21-4.14-9.71-3.29-17.94,5.73-37.48,21.52-46.61a15.78,15.78,0,0,1,6.84-2.43,16.21,16.21,0,0,1,6.92,1.52l.15.06a52.33,52.33,0,0,1,17.14,11.44,9.66,9.66,0,0,0,2.62,2.11,9,9,0,0,0,3.09.58l13.14.83a31.14,31.14,0,0,1,6.6.91,52.46,52.46,0,0,1,6.94,3c7.07,3.16,14.91,4,22.55,5.22a3.37,3.37,0,0,1,2,.8,3.13,3.13,0,0,1,.62,1.3A25.51,25.51,0,0,1,709.61,766.57Z" transform="translate(-91.39 -95.85)" fill="#3f3d56"/>
  <path d="M640.25,717.13a78.9,78.9,0,0,0-13.15,16.44,82.28,82.28,0,0,0-10.74,32.54,60.4,60.4,0,0,0-.11,12.61A15.63,15.63,0,0,1,609,774.3c-2.36-2.67-3.49-6.21-4.14-9.71-3.29-17.94,5.73-37.48,21.52-46.61a15.78,15.78,0,0,1,6.84-2.43,16.21,16.21,0,0,1,6.92,1.52Z" transform="translate(-91.39 -95.85)" opacity="0.1"/>
  <path d="M894.74,742c7.35-.2,15.6-.57,21,4.38,5.15,4.68,5.83,12.4,6.17,19.35l.39,8.07c.12,2.46.22,5-.77,7.28-1.76,4-6.59,5.93-11,5.7s-8.46-2.16-12.49-3.9a175.7,175.7,0,0,0-34-10.71q.57-8.37,1.9-16.66c.61-3.83.71-10.24,3.27-13.42,2.71-3.36,6.24-1.54,9.92-.92A79.63,79.63,0,0,0,894.74,742Z" transform="translate(-91.39 -95.85)" fill="#fbbebe"/>
  <path d="M700.52,660.92c0,1-1.57,0-1.71-1.07-1.1-8.09-7.52-14.76-15-18s-16-3.41-24.1-2.64c-12.25,1.16-25.95,5.85-30.48,17.3-1.06,2.68-1.54,5.58-2.84,8.15-1.44,2.82-3.79,5.07-5.35,7.81-2.69,4.74-2.8,10.55-1.83,15.91,2.61,14.3,12.39,26.53,24.24,35s25.7,13.53,39.51,18.09a685.19,685.19,0,0,0,112,26.75c6.16.93,12.38,1.79,18.28,3.77,5.28,1.77,10.22,4.42,15.38,6.5,12,4.82,24.91,6.54,37.7,8.23,2.18.28,4.68.48,6.29-1,2.08-1.93,1.39-5.29.8-8.06a43.35,43.35,0,0,1,5.09-30.74c2.14-3.6,4.92-7.29,4.52-11.46-.48-4.86-5.32-8.3-10.14-9.08s-9.72.37-14.56,1c-1.67.22-3.49.36-5-.49a9.89,9.89,0,0,1-1.94-1.72,21.93,21.93,0,0,0-25.54-3.57c-1.79,1-4.5-1.23-6.36-2.07L798.47,710c-24.16-10.93-48.44-21.91-74-28.83a15.54,15.54,0,0,1-5.7-2.37c-1.27-1-2.18-2.36-3.35-3.47-2.55-2.41-6.1-3.37-9.16-5.08S699.8,664.35,700.52,660.92Z" transform="translate(-91.39 -95.85)" fill="#464353"/>
  <path d="M1024.71,791.61c-3.36,6.23-9.88,10.11-16.88,11.71a33.5,33.5,0,0,1-5.34.76c-8.85.55-17.59-1.9-26.12-4.32l-11.58-3.28a36.55,36.55,0,0,0-6.1-1.36,41.86,41.86,0,0,0-8.44.29,149.59,149.59,0,0,1-41-1.84,7.23,7.23,0,0,1-3.17-1.13,15.75,15.75,0,0,1-2.21-2.71c-3.15-3.79-6.54-6-2.81-11,2.15-2.9,6.14-4.35,7.81-7.68s.6-8.06-.39-11.5c-1.35-4.75-5.79-6.8-7.38-11.16-1.19-3.29.81-7.11,3.82-8.9s6.73-1.93,10.2-1.47,6.87,1.44,10.36,1.71c10.26.82,20.75-4.47,30.6-1.49,2.17.66,4.22,1.71,6.42,2.29a21.35,21.35,0,0,0,12.83-1.11c1.44-.54,2.85-1.19,4.25-1.83a34.23,34.23,0,0,1,8.55-3.09c9.61-1.65,18.52,5,25.77,11.49a36.44,36.44,0,0,1,6.55,7.1c2,3.12,3.06,6.75,4,10.33C1027.1,772.69,1029.29,783.11,1024.71,791.61Z" transform="translate(-91.39 -95.85)" fill="#3f3d56"/>
  <path d="M1024.71,791.61c-3.36,6.23-9.88,10.11-16.88,11.71a32.69,32.69,0,0,0,3.55-17.16c-.6-9.51-4.78-18.47-10.11-26.37a93.4,93.4,0,0,0-11.14-13.57c-3.18-3.2-7.09-5.74-10.51-8.67a34.23,34.23,0,0,1,8.55-3.09c9.61-1.65,18.52,5,25.77,11.49a36.44,36.44,0,0,1,6.55,7.1c2,3.12,3.06,6.75,4,10.33C1027.1,772.69,1029.29,783.11,1024.71,791.61Z" transform="translate(-91.39 -95.85)" opacity="0.1"/>
  <path d="M722.68,306.35c-3.36,2.43-5.66,5.92-8,9.27-4.31,6.19-9.19,12.37-16.08,15.82-2.61,1.31-5.59,2.3-7.32,4.58a12.34,12.34,0,0,0-1.95,5.13,101.65,101.65,0,0,0-2.06,19.6c0,3.28.14,6.66,1.59,9.64,1.37,2.8,3.84,5.17,4.35,8.22.39,2.38-.49,4.75-.8,7.14s.23,5.22,2.44,6.36a14.79,14.79,0,0,0,3.7.87c6.65,1.48,8.88,9.28,9.89,15.73,2.26-.13,3.28-2.72,3.75-4.83l6.93-30.81c.75-3.34,2-7.21,5.33-8.38,2.23-.77,4.67-.05,7,.15,9.15.75,16.89-6.32,25.84-8.27A33,33,0,0,1,766,356c7.06.35,15.27,3.25,16.77,9.84.25,1.07.4,2.35,1.4,2.88s2,.08,3.1,0c4.48-.45,7.12,4.59,8.41,8.71l4.7,15c.7,2.27,1.88,4.94,4.34,5.23,2.27.28,4.2-1.87,4.54-4s-.4-4.34-.89-6.48c-2.21-9.85,1.17-19.93,3.23-29.8s2.43-21.21-4.48-28.81c-2.51-2.75-5.81-4.8-8.15-7.7-2.18-2.72-3.41-6.06-5.67-8.73-6.25-7.37-22.28-13.06-32.11-14C750,296.91,731.76,299.76,722.68,306.35Z" transform="translate(-91.39 -95.85)" fill="#3f3d56"/>
  <g opacity="0.1">
    <path d="M804.76,390.65c-2.46-.3-3.64-3-4.34-5.23q-2.35-7.51-4.7-15c-1.29-4.13-3.93-9.17-8.41-8.71-1,.11-2.18.52-3.1,0s-1.15-1.81-1.4-2.88c-1.5-6.6-9.71-9.49-16.77-9.84a33.43,33.43,0,0,0-8.71.57c-9,2-16.69,9-25.84,8.27-2.36-.19-4.8-.91-7-.14-3.37,1.16-4.58,5-5.33,8.38l-6.93,30.8c-.47,2.12-1.49,4.71-3.75,4.83-1-6.44-3.24-14.24-9.89-15.72a15.72,15.72,0,0,1-3.7-.87,4.34,4.34,0,0,1-1.93-2.15c-.18.93-.39,1.86-.51,2.79-.3,2.38.23,5.22,2.44,6.36a14.79,14.79,0,0,0,3.7.87c6.65,1.48,8.88,9.28,9.89,15.73,2.26-.13,3.28-2.72,3.75-4.83l6.93-30.81c.75-3.34,2-7.21,5.33-8.38,2.23-.77,4.67-.05,7,.15,9.15.75,16.89-6.32,25.84-8.27A33,33,0,0,1,766,356c7.06.35,15.27,3.25,16.77,9.84.25,1.07.4,2.35,1.4,2.88s2,.08,3.1,0c4.48-.45,7.12,4.59,8.41,8.71q2.34,7.51,4.7,15c.7,2.27,1.88,4.94,4.34,5.23,2.27.28,4.2-1.87,4.54-4a13.58,13.58,0,0,0-.6-5.31A4.13,4.13,0,0,1,804.76,390.65Z" transform="translate(-91.39 -95.85)"/>
    <path d="M693.22,371.61c-.51-3.05-3-5.42-4.35-8.22a16.45,16.45,0,0,1-1.48-6c0,1.12-.1,2.24-.11,3.37,0,3.28.14,6.66,1.59,9.64,1.11,2.27,2.94,4.27,3.86,6.58A15.06,15.06,0,0,0,693.22,371.61Z" transform="translate(-91.39 -95.85)"/>
    <path d="M811.64,350.33c-1.82,8.72-4.66,17.6-3.78,26.34.57-6.45,2.45-12.94,3.78-19.34a51,51,0,0,0,1.16-14.82A61.14,61.14,0,0,1,811.64,350.33Z" transform="translate(-91.39 -95.85)"/>
  </g>
  <path d="M697.16,574.5c-1.21,19.86-15.78,36.27-21.33,55.37-1.38,4.78-2.21,9.74-4.19,14.29-4,9.15-12.23,15.79-21,20.47a31.54,31.54,0,0,1-10.34,3.76,19.82,19.82,0,0,1-19.91-10.59c-2.29-4.65-2.61-10-4-15-1.55-5.77-4.45-11.09-6.34-16.76-3.48-10.43-3.41-21.85-1-32.57a100,100,0,0,1,10.73-26.56c.7-1.23,1.41-2.45,2.14-3.66a83.18,83.18,0,0,1,6.93-10c6-7.23,13.71-12.79,21.34-18.27a5,5,0,0,1,2-1l.12,0a4.83,4.83,0,0,1,2.47.58A195.56,195.56,0,0,1,685.13,551c3.44,2.29,8.87,4.85,10.67,8.75S697.42,570.26,697.16,574.5Z" transform="translate(-91.39 -95.85)" fill="#fbbebe"/>
  <path d="M657.46,483.11a10.35,10.35,0,0,0-2.22,3.55,167.86,167.86,0,0,0-14.1,57.62,5.76,5.76,0,0,1-.65,2.79,12.21,12.21,0,0,1-1.47,1.59,5.52,5.52,0,0,0,.94,8c1.65-3.11,5.6-4.12,9.11-4.39,16.81-1.33,33.23,6.49,50.09,5.9-1.19-4.11-2.9-8.06-3.87-12.22-4.29-18.47,6.41-38.58-.15-56.37-1.31-3.56-3.5-7.06-6.95-8.62a18.51,18.51,0,0,0-4.45-1.18c-4.26-.77-12.74-4.06-16.86-2.74-1.52.49-2.12,1.92-3.38,2.78C661.63,481.05,659.09,481.48,657.46,483.11Z" transform="translate(-91.39 -95.85)" style="fill: rgb(87, 141, 188);"/>
  <path d="M664.35,648.46a29.49,29.49,0,0,1-25,14.51,19.7,19.7,0,0,1-8-1.47c-6.39-2.82-10-9.8-11.34-16.66s-.92-13.94-1.87-20.87c-.76-5.52-2.38-10.88-3.22-16.39-2.06-13.63,2-27.09,4.89-40.66.7-1.23,1.41-2.45,2.14-3.66a83.18,83.18,0,0,1,6.93-10c6-7.23,13.71-12.79,21.34-18.27h-8a1.37,1.37,0,0,1,2.17.95c.79,7,10.66,14,12.81,20.8,1.33,4.18,2.93,8.28,4,12.54a100.47,100.47,0,0,1,1.92,11q2.13,15.53,4.24,31C669.13,623.87,670.65,637.48,664.35,648.46Z" transform="translate(-91.39 -95.85)" opacity="0.1"/>
  <path d="M651.11,517.16l9.65-30.27c1.44-4.53,2.9-9.13,3.07-13.89s-1.08-9.75-4.41-13.15c-2.7-2.75-6.44-4.17-9.64-6.32-8-5.39-12-14.83-16.17-23.52s-9.66-17.78-18.76-21c-2.1-.74-5-.8-5.94,1.21a4.25,4.25,0,0,0-.15,2.62c.88,4.62,4.19,8.31,7.07,12,4.83,6.25,8.87,13.9,7.71,21.72-1.38,9.26-9.7,16.44-10.7,25.75-.44,4.1.61,8.21.6,12.34,0,2.56-.42,5.17.15,7.67A51.66,51.66,0,0,0,615.7,498a33.18,33.18,0,0,1,1.38,9.21l2.11,39.36c1.14,21.29-10.41,42-7.23,63,.84,5.51,2.46,10.87,3.22,16.39,1,6.93.53,14,1.87,20.87s5,13.84,11.34,16.66a19.7,19.7,0,0,0,8,1.47,29.49,29.49,0,0,0,25-14.51c6.3-11,4.78-24.59,3.06-37.13l-4.24-31a100.47,100.47,0,0,0-1.92-11c-1.06-4.26-2.66-8.36-4-12.54C650,545.11,646.79,530.74,651.11,517.16Z" transform="translate(-91.39 -95.85)" fill="#fbbebe"/>
  <rect x="601.57" y="423.66" width="223" height="142" rx="7.97" fill="#3f3d56"/>
  <rect x="601.57" y="423.66" width="223" height="142" rx="7.97" opacity="0.2"/>
  <circle cx="712.57" cy="494.66" r="6" style="fill: rgb(46, 103, 56);"/>
  <path d="M449.44,611h12.11a25,25,0,0,1,25,25v37.11a0,0,0,0,1,0,0H424.44a0,0,0,0,1,0,0V636A25,25,0,0,1,449.44,611Z" fill="#3f3d56"/>
  <path d="M449.44,611h12.11a25,25,0,0,1,25,25v37.11a0,0,0,0,1,0,0H424.44a0,0,0,0,1,0,0V636A25,25,0,0,1,449.44,611Z" opacity="0.1"/>
  <circle cx="453.02" cy="619.7" r="4.97" fill="#3f3d56"/>
  <circle cx="453.02" cy="613.49" r="4.97" fill="#3f3d56"/>
  <circle cx="453.02" cy="607.28" r="4.97" fill="#3f3d56"/>
  <circle cx="453.02" cy="601.07" r="4.97" fill="#3f3d56"/>
  <circle cx="453.02" cy="594.86" r="4.97" fill="#3f3d56"/>
  <circle cx="453.02" cy="588.65" r="4.97" fill="#3f3d56"/>
  <circle cx="453.02" cy="582.44" r="4.97" fill="#3f3d56"/>
  <circle cx="460.47" cy="584.92" r="4.97" fill="#3f3d56"/>
  <circle cx="465.44" cy="582.44" r="4.97" fill="#3f3d56"/>
  <circle cx="470.41" cy="579.95" r="4.97" fill="#3f3d56"/>
  <circle cx="453.02" cy="576.22" r="4.97" fill="#3f3d56"/>
  <circle cx="453.02" cy="570.01" r="4.97" fill="#3f3d56"/>
  <circle cx="453.02" cy="563.8" r="4.97" fill="#3f3d56"/>
  <circle cx="453.02" cy="557.59" r="4.97" fill="#3f3d56"/>
  <path d="M565,637.41c-1.23.18-2.47.31-3.71.39a28.56,28.56,0,0,0,3.2-3.28,21.22,21.22,0,0,0-3-5.83,10.22,10.22,0,0,1-4,1.26c-1.23.18-2.47.32-3.71.4a68.41,68.41,0,0,0,4.75-5A21.1,21.1,0,1,0,565.52,641a20.68,20.68,0,0,0-.32-3.63Z" style="fill: rgb(46, 103, 56);" transform="translate(-91.39 -95.85)"/>
  <path d="M581.61,662.1a9.83,9.83,0,0,1-4.18,1.4c-1.23.18-2.47.31-3.71.39a36.4,36.4,0,0,0,3.68-3.82,12.44,12.44,0,1,0,4.21,2Z" transform="translate(-91.39 -95.85)" style="fill: rgb(46, 103, 56);"/>
  <circle cx="445.56" cy="584.92" r="4.97" fill="#3f3d56"/>
  <circle cx="440.59" cy="582.44" r="4.97" fill="#3f3d56"/>
  <circle cx="435.62" cy="579.95" r="4.97" fill="#3f3d56"/>
  <path d="M507.2,662.1a9.78,9.78,0,0,0,4.18,1.4c1.23.18,2.47.31,3.71.39a35.42,35.42,0,0,1-3.68-3.82,12.44,12.44,0,1,1-4.21,2Z" transform="translate(-91.39 -95.85)" style="fill: rgb(46, 103, 56);"/>
  <path d="M449.44,614.73h12.11a25,25,0,0,1,25,25v32.87a4.24,4.24,0,0,1-4.24,4.24H428.68a4.24,4.24,0,0,1-4.24-4.24V639.73A25,25,0,0,1,449.44,614.73Z" fill="#3f3d56"/>
  <g opacity="0.1">
    <path d="M565.38,638.77a18.83,18.83,0,0,1-1.6,1.52c.57,0,1.13-.09,1.7-.15C565.46,639.68,565.43,639.22,565.38,638.77Z" transform="translate(-91.39 -95.85)"/>
    <path d="M556.32,632.83c1.25-.08,2.48-.21,3.72-.39a12,12,0,0,0,3.23-.88,21.92,21.92,0,0,0-1.74-2.87,7.52,7.52,0,0,1-2,.85A28.79,28.79,0,0,1,556.32,632.83Z" transform="translate(-91.39 -95.85)"/>
    <path d="M525.77,643.5a21.08,21.08,0,0,1,32.5-17.76l.32-.34a21.1,21.1,0,1,0-27.82,31.73A21,21,0,0,1,525.77,643.5Z" transform="translate(-91.39 -95.85)"/>
  </g>
  <g opacity="0.1">
    <path d="M573.72,666.37c1.24-.08,2.48-.21,3.71-.39a9.7,9.7,0,0,0,4.18-1.4,12.43,12.43,0,0,1,5,8.8,11.38,11.38,0,0,0,.07-1.31,12.38,12.38,0,0,0-5-10,9.83,9.83,0,0,1-4.18,1.4l-1,.12A25.37,25.37,0,0,1,573.72,666.37Z" transform="translate(-91.39 -95.85)"/>
    <path d="M574.22,662.13a10.19,10.19,0,0,1,1.24.09c.65-.69,1.29-1.43,1.94-2.15a12.4,12.4,0,0,0-15.6,12c0,.42,0,.83.06,1.24A12.42,12.42,0,0,1,574.22,662.13Z" transform="translate(-91.39 -95.85)"/>
  </g>
  <g opacity="0.1">
    <path d="M515.09,666.37c-1.24-.08-2.48-.21-3.71-.39a9.65,9.65,0,0,1-4.18-1.4,12.43,12.43,0,0,0-5,8.8,11.38,11.38,0,0,1-.07-1.31,12.38,12.38,0,0,1,5-10,9.78,9.78,0,0,0,4.18,1.4l1,.12A23.67,23.67,0,0,0,515.09,666.37Z" transform="translate(-91.39 -95.85)" style="fill: rgb(0, 255, 17);"/>
    <path d="M514.59,662.13a10.36,10.36,0,0,0-1.25.09c-.64-.69-1.28-1.43-1.93-2.15a12.4,12.4,0,0,1,15.6,12c0,.42,0,.83-.06,1.24A12.42,12.42,0,0,0,514.59,662.13Z" transform="translate(-91.39 -95.85)" style="fill: rgb(46, 103, 56);"/>
  </g>
  <rect x="158.11" y="179.65" width="226" height="88" style="fill: rgb(46, 103, 56);"/>
  <rect x="158.11" y="179.65" width="371" height="88" rx="12" fill="none" stroke="#3f3d56" stroke-miterlimit="10" stroke-width="9"/>
  <path d="M452.76,314.79A18.1,18.1,0,0,0,418.93,310a14.48,14.48,0,0,0,1.57,28.88h31.42A12.11,12.11,0,0,0,464,326.75,11.93,11.93,0,0,0,452.76,314.79Zm-13.89,7.13v9.18h-7.74v-9.18h-8.21L435,309.83l12.08,12.09Z" transform="translate(-91.39 -95.85)" fill="#fff"/>
</svg>